<svg id="Capa_1" enable-background="new 0 0 511.809 511.809" height="512" viewBox="0 0 511.809 511.809" width="512" xmlns="http://www.w3.org/2000/svg"><g><g><path d="m275.718 121.5h-39.628v-108.413c0-3.085 2.501-5.587 5.587-5.587h28.454c3.085 0 5.587 2.501 5.587 5.587z" fill="#f5d573"/></g><g><path d="m275.718 121.5h-15.814v-114h10.227c3.085 0 5.587 2.501 5.587 5.587z" fill="#f7c22c"/></g><g><g><g><path d="m397.418 158.537h-283.028v-29.032c0-4.421 3.584-8.005 8.005-8.005h267.018c4.421 0 8.005 3.584 8.005 8.005z" fill="#babac0"/></g></g><g><g><path d="m397.418 158.537h-30.413v-36.134h22.408c4.421 0 8.005 3.584 8.005 8.005z" fill="#aaaaad"/></g></g><g><g><path d="m255.902 214.193h-140.328l30.416 279.271c.65 5.967 5.689 10.488 11.692 10.488h98.219 98.219c6.003 0 11.042-4.52 11.692-10.488l30.416-279.271z" fill="#ff4343"/></g></g><g><g><path d="m396.224 214.19-30.408 279.272c-.65 5.967-5.689 10.488-11.692 10.488h-16.45l31.55-289.76z" fill="#e32929"/></g></g><g><g><path d="m406.87 214.193h-301.931c-4.421 0-8.005-3.584-8.005-8.005v-39.648c0-4.421 3.584-8.005 8.005-8.005h301.931c4.421 0 8.005 3.584 8.005 8.005v39.648c0 4.421-3.584 8.005-8.005 8.005z" fill="#efe2dd"/></g></g><g><g><path d="m406.87 214.193h-19.993v-55.658h19.993c4.421 0 8.005 3.584 8.005 8.005v39.648c0 4.421-3.584 8.005-8.005 8.005z" fill="#e1d3ce"/></g></g><g><g><path d="" style="fill:none;stroke:#000;stroke-width:15;stroke-linecap:round;stroke-linejoin:round;stroke-miterlimit:10"/></g></g></g><g><path d="m189.432 214.193s-18.73 44.518 16.117 84.11c0 0 60.982 54.89 58.369 122.378 0 0 0 45.777-15.246 83.628h66.209c9.858-23.71 13.116-51.711 12.435-77.233-1.469-55.032-25.981-97.182-63.311-134.629-19.284-19.344-47.578-49.093-29.272-78.255h-45.301z" fill="#efe2dd"/></g><g><path d="m314.878 504.31h-24.388c9.864-23.711 13.124-51.712 12.438-77.238-.874-32.509-10.605-63.773-27.979-91.23-17.751-28.052-44.973-46.744-61.979-75.173-4.24-7.088-7.666-14.932-8.383-23.245-.268-3.106.952-23.232 5.757-23.232h24.388c-18.3 29.166 9.99 58.91 29.275 78.258 37.332 37.44 61.846 79.595 63.309 134.622.686 25.527-2.574 53.528-12.438 77.238z" fill="#e1d3ce"/></g><path d="m406.87 151.034h-1.952v-21.529c0-8.55-6.955-15.505-15.505-15.505h-106.195v-100.913c0-7.216-5.87-13.087-13.086-13.087h-28.455c-7.216 0-13.087 5.871-13.087 13.087v22.413c0 4.143 3.358 7.5 7.5 7.5s7.5-3.357 7.5-7.5v-20.5h24.627v99h-24.627v-32c0-4.143-3.358-7.5-7.5-7.5s-7.5 3.357-7.5 7.5v32h-106.194c-8.55 0-15.505 6.955-15.505 15.505v21.529h-1.952c-8.549 0-15.505 6.955-15.505 15.505v39.648c0 8.55 6.956 15.505 15.505 15.505h3.908l29.688 272.582c1.066 9.793 9.298 17.177 19.148 17.177h88.748c.718.226 1.47.357 2.242.357h66.209c.785 0 1.548-.127 2.271-.357h36.968c9.85 0 18.081-7.384 19.147-17.171l17.591-160.463c.451-4.117-2.521-7.821-6.638-8.272-4.121-.453-7.821 2.521-8.272 6.638l-17.592 160.467c-.236 2.167-2.058 3.801-4.236 3.801h-28.346c8.213-25.174 9.53-51.192 9.039-69.575-1.384-51.891-22.195-96.288-65.496-139.724-20.159-20.221-40.484-43.463-30.133-65.46h148.684l-7.079 64.995c-.448 4.118 2.526 7.82 6.644 8.269 4.121.456 7.819-2.526 8.269-6.644l7.256-66.62h3.913c8.55 0 15.505-6.955 15.505-15.505v-39.648c-.002-8.55-6.957-15.505-15.507-15.505zm-284.98-21.529c0-.278.227-.505.505-.505h267.018c.278 0 .505.227.505.505v21.529h-268.028zm134.534 290.887c-.004.097-.006.193-.006.29 0 .423-.153 40.736-12.777 75.77h-85.959c-2.179 0-4-1.634-4.236-3.801l-29.511-270.958h55.385c-3.895 16.62-6.871 50.355 20.599 81.566.189.215.395.423.608.615.584.527 58.339 53.43 55.897 116.518zm2.27-122.65c40.427 40.553 59.85 81.713 61.125 129.534.489 18.309-.919 44.667-9.923 69.175h-50.399c11.531-35.291 11.91-72.481 11.92-75.619 2.558-68.196-54.95-122.69-60.507-127.789-25.023-28.696-19.454-59.792-16.112-71.351h28.305c-3.625 12.08-1.774 25.093 5.551 38.837 7.484 14.04 19.43 26.571 30.04 37.213zm148.681-91.554c0 .278-.227.505-.505.505h-10.641-280.655-10.636c-.278 0-.505-.227-.505-.505v-39.648c0-.278.227-.505.505-.505h9.394c.02 0 .038.003.058.003h283.028c.02 0 .038-.003.058-.003h9.394c.278 0 .505.227.505.505z"/></g></svg>