<?xml version="1.0" encoding="iso-8859-1"?>
<!-- Generator: Adobe Illustrator 19.0.0, SVG Export Plug-In . SVG Version: 6.00 Build 0)  -->
<svg version="1.1" id="Capa_1" xmlns="http://www.w3.org/2000/svg" xmlns:xlink="http://www.w3.org/1999/xlink" x="0px" y="0px"
	 viewBox="0 0 512 512" style="enable-background:new 0 0 512 512;" xml:space="preserve">
<path style="fill:#FEDA44;" d="M504.5,202.075c0-78.513-111.257-142.16-248.5-142.16S7.5,123.563,7.5,202.075
	c0,72.982,46.309,137.039,116.017,173.322c-0.795,2.98-1.214,6.021-1.214,9.111c0,37.321,59.858,67.575,133.697,67.575
	s133.697-30.254,133.697-67.575c0-3.09-0.419-6.131-1.214-9.111C458.191,339.115,504.5,275.057,504.5,202.075z"/>
<g>
	<path style="fill:#FF9911;" d="M168.907,384.509c0-3.09,0.419-6.131,1.214-9.111C100.413,339.115,54.104,275.057,54.104,202.075
		c0-74.017,98.884-134.812,225.198-141.533c-7.673-0.408-15.442-0.627-23.302-0.627c-137.243,0-248.5,63.647-248.5,142.16
		c0,72.982,46.309,137.039,116.017,173.322c-0.795,2.98-1.214,6.021-1.214,9.111c0,37.321,59.858,67.575,133.697,67.575
		c7.949,0,15.734-0.353,23.302-1.025C216.572,445.486,168.907,417.812,168.907,384.509z"/>
	<ellipse style="fill:#FF9911;" cx="256" cy="202.07" rx="200.61" ry="101.39"/>
</g>
<path style="fill:#FF5023;" d="M92.627,260.924c36.378,25.753,95.995,42.544,163.373,42.544s126.995-16.791,163.373-42.544
	c10.144-11.355,15.791-23.957,15.791-37.226c0-50.013-80.215-90.556-179.164-90.556S76.836,173.686,76.836,223.698
	C76.836,236.967,82.483,249.569,92.627,260.924z"/>
<path style="fill:#D80029;" d="M153.421,260.924c-10.144-11.355-15.791-23.957-15.791-37.226c0-44.775,64.297-81.954,148.767-89.252
	c-9.881-0.854-20.034-1.304-30.397-1.304c-98.95,0-179.164,40.543-179.164,90.556c0,13.269,5.647,25.871,15.791,37.226
	c36.378,25.753,95.995,42.544,163.373,42.544c10.334,0,20.484-0.399,30.397-1.161C231.677,298.103,184.219,282.728,153.421,260.924z
	"/>
<path d="M401.233,123.686C362.314,104.015,310.736,93.182,256,93.182s-106.314,10.833-145.233,30.504
	c-40.544,20.492-62.873,48.331-62.873,78.389c0,30.058,22.329,57.897,62.873,78.39c38.918,19.671,90.497,30.504,145.233,30.504
	s106.314-10.833,145.233-30.504c40.544-20.492,62.873-48.332,62.873-78.39C464.106,172.017,441.777,144.178,401.233,123.686z
	 M117.533,137.073c36.861-18.63,86.036-28.891,138.467-28.891s101.606,10.261,138.467,28.891
	c35.234,17.81,54.639,40.894,54.639,65.002c0,8.134-2.218,16.15-6.498,23.888c0.031-0.753,0.057-1.507,0.057-2.264
	c0-27.163-20.099-52.281-56.593-70.727c-34.869-17.624-81.063-27.33-130.072-27.33s-95.203,9.706-130.072,27.33
	c-36.494,18.445-56.593,43.563-56.593,70.727c0,0.757,0.026,1.511,0.057,2.264c-4.281-7.738-6.498-15.754-6.498-23.888
	C62.894,177.966,82.299,154.882,117.533,137.073z M394.467,267.078c-36.861,18.63-86.036,28.891-138.467,28.891
	s-101.606-10.261-138.467-28.891c-7.282-3.681-13.876-7.59-19.774-11.683c-8.901-10.154-13.424-20.814-13.424-31.696
	c0-21.214,17.174-41.577,48.359-57.34c32.811-16.584,76.602-25.717,123.305-25.717s90.494,9.133,123.305,25.717
	c31.185,15.763,48.359,36.126,48.359,57.34c0,10.883-4.523,21.543-13.426,31.697C408.341,259.489,401.748,263.397,394.467,267.078z"
	/>
<g>
	<path style="fill:#FFFFFF;" d="M475.452,202.075c0,13.352-4.435,26.482-13.183,39.029l12.305,8.578
		c10.536-15.111,15.878-31.129,15.878-47.607c0-31.35-19.929-61.521-56.116-84.955l-8.153,12.59
		C457.955,150.286,475.452,175.985,475.452,202.075z"/>
	<path style="fill:#FFFFFF;" d="M426.771,112.455c-6.881-4.042-14.313-7.876-22.087-11.397l-6.188,13.664
		c7.295,3.304,14.252,6.893,20.679,10.667L426.771,112.455z"/>
</g>
<path d="M512,202.075L512,202.075c0-40.777-27.19-78.788-76.56-107.031C387.389,67.554,323.662,52.416,256,52.416
	S124.611,67.554,76.56,95.043C27.19,123.286,0,161.298,0,202.075l0,0v0.001c0,27.911,6.633,55.51,19.34,81.083l-0.006,0.003
	c0.013,0.023,0.028,0.045,0.042,0.067c4.005,8.052,8.607,15.906,13.801,23.502c19.941,29.162,48.192,54.203,81.938,72.682
	c-0.208,1.7-0.313,3.401-0.313,5.096c0,42.099,62.021,75.075,141.197,75.075s141.197-32.977,141.197-75.075
	c0-1.694-0.104-3.396-0.313-5.096c33.747-18.479,61.997-43.52,81.938-72.682C500.528,274.992,512,238.802,512,202.075L512,202.075z
	 M385.021,368.746l-1.274,0.663c-9.869,5.065-20.248,9.577-30.885,13.408l5.083,14.113c8.223-2.962,16.301-6.315,24.135-9.995
	c-2.782,31.493-59.38,57.649-126.08,57.649c-66.698,0-123.296-26.156-126.08-57.648c38.325,18.002,81.668,27.483,126.08,27.483
	c26.278,0,52.191-3.287,77.018-9.77l-3.79-14.514c-23.59,6.16-48.228,9.283-73.228,9.283c-45.355,0-89.483-10.374-127.729-30.001
	l-1.292-0.672c-14.312-7.45-27.446-15.976-39.288-25.404c25.96,13.641,56.869,24.122,90.909,30.369l2.707-14.754
	c-70.202-12.883-125.918-44.059-149.042-83.396l-0.039,0.023c-0.114-0.233-0.231-0.466-0.344-0.7
	c11.827,12.467,26.787,23.989,44.677,34.224c48.051,27.488,111.778,42.627,179.44,42.627c65.271,0,127.357-14.224,174.82-40.05
	l-7.169-13.176c-45.3,24.652-104.84,38.227-167.65,38.227c-65.091,0-126.172-14.436-171.992-40.647
	C39.508,270.63,15,237.243,15,202.075c0-12.009,2.862-23.809,8.398-35.158h23.268v-15H32.47
	c11.694-16.112,29.062-30.996,51.538-43.854C129.828,81.851,190.909,67.416,256,67.416s126.172,14.436,171.992,40.647
	c44.5,25.458,69.008,58.845,69.008,94.012c0,29.187-16.746,57.06-48.426,80.608l8.948,12.039
	c8.509-6.325,16.049-12.969,22.615-19.879C461.725,312.945,428.909,345.901,385.021,368.746z"/>
<path d="M314.504,192.832c-15.752-7.962-36.529-12.347-58.504-12.347c-22.775,0-44.092,4.665-60.025,13.135l7.041,13.244
	c13.604-7.231,32.916-11.379,52.984-11.379c41.519,0,70.453,16.812,70.453,31.9h15C341.453,213.886,331.882,201.615,314.504,192.832
	z"/>
<path d="M256,259.286c-41.519,0-70.453-16.812-70.453-31.9h-15c0,13.499,9.57,25.771,26.949,34.554
	c15.752,7.962,36.529,12.347,58.504,12.347c26.592,0,51.071-6.36,67.161-17.451l-8.513-12.35
	C301.202,253.752,279.277,259.286,256,259.286z"/>
<g>
	<path style="fill:#FFFFFF;" d="M331.817,165.637c-10.378-3.298-21.539-5.905-33.171-7.75l-2.35,14.814
		c10.892,1.728,21.315,4.16,30.979,7.23L331.817,165.637z"/>
	<path style="fill:#FFFFFF;" d="M347.79,171.518l-5.854,13.811c28.564,12.107,44.947,29.134,44.947,46.715h15
		C401.883,208.15,382.167,186.088,347.79,171.518z"/>
</g>
<g>
</g>
<g>
</g>
<g>
</g>
<g>
</g>
<g>
</g>
<g>
</g>
<g>
</g>
<g>
</g>
<g>
</g>
<g>
</g>
<g>
</g>
<g>
</g>
<g>
</g>
<g>
</g>
<g>
</g>
</svg>
