<?xml version="1.0" standalone="no"?>
<!DOCTYPE svg PUBLIC "-//W3C//DTD SVG 20010904//EN"
 "http://www.w3.org/TR/2001/REC-SVG-20010904/DTD/svg10.dtd">
<svg version="1.0" xmlns="http://www.w3.org/2000/svg"
 width="599.000000pt" height="254.000000pt" viewBox="0 0 599.000000 254.000000"
 preserveAspectRatio="xMidYMid meet">

<g transform="translate(0.000000,254.000000) scale(0.100000,-0.100000)"
fill="#000000" stroke="none">
<path d="M2793 2480 c-23 -9 -53 -58 -53 -85 0 -31 34 -76 65 -84 65 -17 125
23 125 85 0 64 -75 111 -137 84z"/>
<path d="M3074 2479 c-25 -13 -54 -59 -54 -87 0 -11 12 -34 26 -51 22 -27 32
-31 74 -31 41 0 52 4 69 26 13 16 21 41 21 64 0 66 -74 109 -136 79z"/>
<path d="M115 2448 c-3 -7 -4 -267 -3 -578 l3 -565 235 -3 c357 -4 453 13 532
92 62 62 83 117 83 221 0 76 -4 97 -25 139 -30 59 -91 111 -155 133 l-47 16
35 12 c70 24 140 103 153 172 12 66 -1 168 -29 216 -56 94 -116 129 -257 148
-108 14 -520 11 -525 -3z m506 -170 c75 -26 109 -71 109 -144 0 -42 -16 -83
-43 -112 -40 -43 -79 -52 -233 -52 l-144 0 0 160 0 160 139 0 c79 0 152 -5
172 -12z m54 -493 c55 -27 88 -91 82 -158 -5 -57 -29 -94 -83 -124 -36 -21
-52 -23 -201 -23 l-163 0 0 166 0 166 163 -4 c138 -2 168 -6 202 -23z"/>
<path d="M4260 1880 l0 -581 88 3 87 3 5 116 5 116 89 97 c49 53 92 96 95 96
4 0 53 -94 111 -210 57 -115 108 -211 115 -213 6 -3 50 -5 98 -5 60 0 87 3 87
11 0 7 -61 135 -135 286 -133 268 -135 274 -118 295 10 11 64 71 121 132 56
61 102 115 102 120 0 5 -45 8 -100 6 l-100 -3 -182 -199 -183 -199 -3 355 -2
354 -90 0 -90 0 0 -580z"/>
<path d="M1010 2360 l0 -90 830 -2 830 -3 0 25 c1 14 2 54 2 90 l2 65 -832 3
-832 2 0 -90z"/>
<path d="M3270 2358 l0 -93 470 3 470 2 0 90 0 90 -470 0 -470 0 0 -92z"/>
<path d="M4488 2375 c-2 -41 -1 -83 2 -92 5 -17 45 -18 713 -18 l707 0 0 93 0
92 -709 0 -709 0 -4 -75z"/>
<path d="M2385 2159 c-55 -28 -89 -64 -124 -129 l-31 -55 0 88 0 87 -90 0 -91
0 1 -419 1 -420 95 -3 c53 -2 98 -1 100 1 2 2 4 102 4 222 0 189 3 225 20 282
32 103 63 132 160 152 l55 12 3 101 3 102 -33 0 c-18 0 -51 -9 -73 -21z"/>
<path d="M1379 2156 c-127 -34 -227 -141 -263 -281 -18 -67 -21 -218 -5 -284
27 -118 103 -217 207 -268 107 -52 292 -42 391 22 71 45 151 150 151 197 0 14
-8 18 -37 18 -21 1 -57 5 -81 9 -42 8 -44 8 -66 -28 -48 -75 -94 -101 -177
-101 -120 0 -199 88 -199 223 l0 47 290 0 290 0 0 51 c0 61 -23 157 -52 213
-49 96 -126 161 -220 184 -60 15 -170 14 -229 -2z m166 -127 c51 -14 110 -73
124 -124 22 -80 34 -75 -179 -75 l-190 0 0 23 c0 38 46 123 79 146 55 40 101
48 166 30z"/>
<path d="M2853 2155 c-176 -54 -278 -213 -277 -430 1 -267 150 -435 388 -435
166 0 289 69 356 200 28 55 26 70 -9 70 -15 0 -56 3 -90 6 -49 6 -61 4 -61 -7
0 -24 -60 -89 -97 -104 -45 -19 -124 -19 -166 -1 -43 18 -92 73 -105 116 -6
19 -12 58 -14 85 l-3 50 293 3 292 2 0 48 c0 136 -74 288 -175 359 -70 49
-236 68 -332 38z m172 -126 c68 -19 135 -113 135 -188 0 -13 -376 -16 -384 -3
-8 14 31 112 55 139 28 30 94 62 129 63 14 0 43 -5 65 -11z"/>
<path d="M5364 2156 c-96 -23 -185 -94 -214 -170 -21 -57 -17 -60 86 -71 l62
-7 18 39 c11 21 33 47 51 59 42 28 128 39 195 24 86 -18 118 -57 118 -144 l0
-43 -132 -6 c-185 -9 -283 -38 -362 -107 -134 -118 -82 -365 89 -423 63 -22
182 -22 237 0 60 23 122 75 144 120 l18 38 7 -41 c4 -23 12 -60 19 -83 l11
-41 90 2 c87 1 90 2 83 22 -4 12 -10 165 -13 341 -6 317 -6 321 -31 369 -31
60 -99 110 -170 125 -67 14 -242 13 -306 -3z m314 -466 c7 -96 -39 -195 -106
-229 -80 -41 -182 -35 -230 13 -19 18 -26 38 -30 79 -4 52 -2 57 33 96 43 47
103 69 225 81 107 10 105 11 108 -40z"/>
<path d="M3500 2080 l0 -70 180 0 c99 0 180 -3 180 -8 0 -8 -29 -54 -40 -62
-4 -3 -11 -12 -16 -21 -5 -9 -21 -32 -36 -50 -15 -19 -90 -119 -167 -224
l-141 -190 0 -78 0 -78 318 3 317 3 0 73 0 74 -203 -2 c-136 0 -203 3 -200 10
1 5 75 107 163 225 88 119 179 242 202 273 39 53 42 61 42 125 l1 67 -300 0
-300 0 0 -70z"/>
<path d="M77 1213 c-4 -3 -7 -42 -7 -85 l0 -78 2915 0 2915 0 0 85 0 85 -2908
0 c-1600 0 -2912 -3 -2915 -7z"/>
<path d="M184 967 c-2 -7 -26 -73 -54 -147 -27 -74 -50 -141 -50 -147 0 -7 11
-13 23 -13 19 0 28 9 40 40 l15 40 65 0 65 0 16 -40 c14 -35 20 -40 47 -40 38
0 38 1 -24 161 -61 159 -60 157 -103 157 -19 0 -37 -5 -40 -11z m63 -116 c12
-33 19 -62 16 -65 -8 -7 -78 -8 -85 -1 -6 6 34 125 43 125 3 0 15 -27 26 -59z"/>
<path d="M430 819 l0 -159 25 0 25 0 0 132 c0 72 2 129 5 126 3 -3 25 -61 48
-129 59 -168 66 -167 127 6 l45 130 3 -132 3 -133 29 0 c17 0 30 5 31 13 0 11
0 282 -1 299 0 4 -21 6 -47 5 l-48 -2 -34 -92 c-19 -51 -37 -90 -41 -88 -4 2
-20 39 -35 82 -15 43 -32 83 -37 89 -4 6 -28 11 -53 11 l-45 0 0 -158z"/>
<path d="M854 967 c-2 -7 -3 -78 -2 -157 l3 -145 113 -3 112 -3 0 26 c0 25 -1
25 -80 25 l-80 0 0 45 0 45 65 0 c58 0 65 2 65 20 0 18 -7 20 -65 20 l-65 0 0
45 0 45 80 0 c79 0 80 0 80 25 l0 25 -110 0 c-81 0 -112 -3 -116 -13z"/>
<path d="M1140 820 l0 -160 30 0 30 0 0 65 0 65 48 0 47 0 26 -63 c23 -57 28
-62 59 -65 37 -4 37 -3 -1 85 l-23 52 26 20 c31 25 42 60 28 95 -17 45 -51 58
-165 62 l-105 3 0 -159z m194 94 c19 -19 20 -35 3 -58 -10 -14 -25 -17 -72
-14 -58 3 -60 4 -63 31 -6 49 3 57 62 57 36 0 60 -5 70 -16z"/>
<path d="M1485 968 c-3 -8 -4 -79 -3 -158 l3 -145 30 0 30 0 0 155 0 155 -28
3 c-16 2 -29 -2 -32 -10z"/>
<path d="M1675 961 c-49 -29 -67 -66 -68 -135 -1 -102 40 -156 124 -164 61 -6
106 14 132 58 24 40 21 50 -13 50 -16 0 -30 -4 -30 -10 0 -21 -41 -50 -70 -50
-40 0 -67 29 -75 82 -13 91 39 164 98 137 14 -6 30 -22 36 -35 8 -18 19 -24
41 -24 16 0 30 4 30 9 0 17 -47 76 -70 88 -36 18 -100 16 -135 -6z"/>
<path d="M2006 972 c-6 -10 -116 -302 -116 -308 0 -2 12 -4 26 -4 21 0 29 8
41 40 l16 40 67 0 67 0 16 -40 c13 -35 20 -40 46 -40 17 0 31 3 31 7 0 9 -99
273 -111 295 -10 19 -73 26 -83 10z m61 -124 c12 -29 19 -56 16 -60 -2 -5 -22
-8 -43 -8 -21 0 -41 3 -43 8 -6 9 33 112 43 112 4 0 16 -24 27 -52z"/>
<path d="M2250 820 l0 -160 25 0 c24 0 24 0 27 112 l3 112 65 -99 c78 -118 84
-125 116 -125 l24 0 0 161 0 160 -22 -3 c-22 -3 -23 -9 -28 -103 l-5 -100 -62
90 c-80 117 -79 115 -113 115 l-30 0 0 -160z"/>
<path d="M2752 960 c-45 -28 -57 -62 -36 -106 14 -29 25 -37 73 -50 109 -30
106 -28 106 -60 0 -28 -1 -29 -57 -32 -47 -2 -60 1 -77 19 -15 16 -26 20 -45
15 -14 -3 -26 -11 -26 -17 0 -18 49 -56 81 -63 117 -23 199 15 199 93 0 47
-27 69 -113 93 -87 23 -103 40 -67 70 27 22 72 19 100 -7 20 -18 62 -9 58 14
-9 46 -137 67 -196 31z"/>
<path d="M2996 973 c-3 -3 -6 -15 -6 -25 0 -15 8 -18 45 -18 l44 0 3 -132 3
-133 32 -3 32 -3 3 133 3 133 45 5 c37 4 45 9 45 25 0 19 -7 20 -121 22 -67 1
-124 0 -128 -4z"/>
<path d="M3290 973 c-1 -59 -2 -291 -1 -301 1 -8 11 -12 29 -10 26 3 27 6 30
66 l3 63 46 -3 45 -3 26 -62 c22 -55 29 -63 52 -63 15 0 29 3 32 6 4 3 -6 33
-22 67 l-28 61 29 27 c39 36 40 90 3 124 -15 14 -36 25 -48 26 -12 0 -60 3
-108 5 -49 3 -88 1 -88 -3z m193 -64 c5 -9 7 -28 3 -42 -6 -26 -9 -27 -71 -27
l-65 0 0 45 0 46 61 -3 c43 -2 65 -8 72 -19z"/>
<path d="M3630 820 l0 -161 113 3 c104 3 112 4 112 23 0 18 -8 21 -80 25 l-80
5 -3 43 -3 42 65 0 c59 0 66 2 66 20 0 16 -8 19 -62 22 l-63 3 -3 43 -3 42 80
0 c78 0 81 1 81 23 0 23 -2 24 -110 26 l-110 2 0 -161z"/>
<path d="M3916 973 c-3 -4 -6 -75 -6 -160 l0 -153 115 0 115 0 0 25 c0 25 -1
25 -80 25 l-80 0 0 45 0 45 65 0 c58 0 65 2 65 20 0 18 -7 20 -65 20 l-65 0 0
45 0 45 81 0 c78 0 80 1 77 23 -3 21 -7 22 -109 24 -59 1 -109 -1 -113 -4z"/>
<path d="M4160 953 c0 -21 5 -23 45 -23 l44 0 3 -132 3 -133 30 0 30 0 3 133
3 132 44 0 c41 0 45 2 45 25 l0 25 -125 -2 c-123 -2 -125 -2 -125 -25z"/>
<path d="M4590 971 c-1 -18 -1 -288 -1 -298 1 -8 14 -13 31 -13 29 0 29 0 32
68 l3 67 60 5 c45 4 60 9 60 20 0 11 -16 16 -60 20 l-60 5 0 40 0 40 78 3 c74
3 78 4 75 25 -3 21 -8 22 -110 23 -60 1 -108 -2 -108 -5z"/>
<path d="M4915 970 c-11 -4 -33 -22 -50 -40 -28 -29 -30 -36 -30 -108 0 -61 4
-82 20 -104 62 -83 198 -76 249 12 28 47 28 133 1 179 -35 59 -126 88 -190 61z
m109 -55 c28 -31 39 -78 30 -134 -8 -47 -33 -71 -77 -71 -46 0 -64 16 -77 69
-16 68 2 128 44 147 44 19 54 17 80 -11z"/>
<path d="M5260 973 c-52 -19 -90 -83 -90 -153 0 -93 49 -151 133 -158 64 -5
105 13 139 60 18 26 23 46 23 98 0 76 -26 123 -81 146 -33 14 -95 17 -124 7z
m85 -43 c54 -20 73 -153 29 -201 -17 -19 -78 -26 -100 -11 -21 14 -36 54 -36
99 0 56 17 97 45 111 28 14 31 14 62 2z"/>
<path d="M5525 968 c-3 -8 -4 -79 -3 -158 l3 -145 90 1 c132 1 183 36 200 136
9 52 -27 125 -74 152 -45 26 -208 37 -216 14z m187 -63 c45 -45 46 -125 2
-166 -15 -14 -40 -24 -74 -27 l-50 -5 0 112 0 111 49 0 c38 0 53 -5 73 -25z"/>
<path d="M80 480 l0 -80 2915 0 2915 0 0 80 0 80 -2915 0 -2915 0 0 -80z"/>
<path d="M240 306 c-22 -43 -25 -45 -79 -51 -31 -4 -60 -8 -65 -9 -6 -1 12
-17 38 -35 39 -27 47 -37 41 -55 -3 -11 -8 -36 -12 -54 l-6 -33 57 28 57 28
51 -27 c29 -15 53 -26 56 -24 2 2 -1 21 -7 43 -17 59 -14 66 34 97 25 15 44
30 42 32 -2 2 -24 5 -48 5 -65 3 -83 13 -104 58 -10 23 -21 41 -25 41 -4 0
-17 -20 -30 -44z"/>
<path d="M746 325 c-9 -13 -16 -28 -16 -33 0 -20 -31 -33 -92 -40 l-63 -7 47
-30 c51 -32 57 -47 37 -104 -6 -18 -9 -34 -7 -37 3 -2 26 7 52 21 58 31 64 31
117 1 24 -14 46 -23 50 -20 4 2 3 19 -2 37 -16 57 -11 71 31 97 22 14 40 28
40 33 0 6 -34 11 -69 9 -32 -1 -61 20 -81 58 -11 22 -22 40 -24 40 -2 0 -11
-11 -20 -25z"/>
<path d="M1235 307 c-20 -41 -21 -42 -90 -52 l-70 -10 48 -30 c50 -32 56 -47
36 -104 -6 -18 -9 -34 -7 -37 3 -2 25 7 49 21 55 31 66 31 123 -1 26 -15 49
-24 52 -22 2 3 -3 27 -11 54 -8 27 -15 49 -15 50 0 0 21 16 48 35 l47 34 -65
10 c-62 10 -66 12 -88 53 -13 23 -27 42 -30 42 -4 -1 -16 -20 -27 -43z"/>
<path d="M1731 306 c-19 -44 -20 -44 -78 -51 -32 -4 -62 -7 -66 -8 -4 -2 12
-17 37 -34 50 -35 52 -40 32 -95 -7 -21 -11 -39 -9 -42 3 -3 29 7 59 22 l54
26 47 -24 c27 -14 52 -26 57 -28 7 -4 5 18 -11 84 -3 17 6 29 42 55 26 18 43
34 38 35 -4 2 -34 5 -66 9 -57 6 -59 8 -80 51 -11 24 -24 44 -29 44 -4 0 -16
-20 -27 -44z"/>
<path d="M2228 310 c-18 -45 -47 -60 -109 -60 -21 0 -39 -3 -39 -7 0 -5 18
-19 40 -33 43 -26 48 -44 29 -99 -6 -18 -9 -35 -6 -38 3 -3 27 6 53 21 57 32
62 32 120 0 25 -14 48 -24 50 -21 2 2 -2 25 -10 51 -16 52 -12 59 44 93 17 9
30 20 30 23 0 4 -28 11 -62 16 -60 9 -64 11 -86 52 -13 23 -27 42 -30 42 -4 0
-15 -18 -24 -40z"/>
<path d="M2725 309 c-21 -46 -45 -59 -113 -59 l-47 -1 27 -20 c75 -56 72 -51
59 -104 -6 -26 -10 -49 -8 -51 2 -2 26 9 55 24 l51 27 57 -28 57 -28 -6 29
c-3 16 -9 41 -12 55 -6 21 0 29 39 57 25 19 45 34 43 36 -1 1 -28 5 -61 8 -61
6 -74 15 -97 69 -6 15 -15 27 -19 27 -4 0 -15 -18 -25 -41z"/>
<path d="M3192 305 c-13 -26 -29 -46 -39 -47 -10 0 -22 -2 -28 -3 -5 -2 -28
-3 -50 -4 l-40 -2 23 -17 c78 -58 76 -54 63 -107 -6 -26 -10 -49 -8 -51 2 -2
26 9 55 24 l51 27 57 -28 c31 -15 58 -26 60 -24 2 2 -3 25 -12 51 l-17 48 29
24 c16 13 37 26 47 29 33 12 16 23 -46 29 -63 7 -64 8 -85 52 -12 24 -25 44
-30 44 -4 0 -18 -20 -30 -45z"/>
<path d="M3690 306 c-22 -46 -43 -55 -125 -56 l-30 -1 23 -19 c13 -11 35 -28
49 -38 26 -19 26 -19 10 -65 -8 -25 -13 -48 -10 -51 3 -2 29 7 59 22 l54 26
56 -27 56 -28 -6 27 c-21 82 -21 81 28 116 26 18 43 33 39 35 -4 1 -34 4 -66
8 -57 6 -59 8 -80 51 -11 24 -25 44 -29 44 -4 0 -17 -20 -28 -44z"/>
<path d="M4189 306 c-22 -45 -44 -56 -121 -56 -31 0 -37 -15 -10 -25 9 -3 30
-16 46 -29 l29 -24 -16 -45 c-8 -25 -13 -48 -10 -51 3 -2 30 7 60 22 l54 27
51 -27 c29 -15 53 -26 55 -24 2 2 -2 25 -8 51 -12 46 -11 49 12 69 14 12 36
28 49 37 24 16 23 16 -43 23 l-68 8 -22 44 c-11 24 -24 44 -28 44 -4 0 -17
-20 -30 -44z"/>
<path d="M4684 308 c-19 -43 -19 -43 -89 -53 l-70 -10 48 -30 c50 -32 56 -47
36 -104 -6 -18 -9 -34 -7 -37 3 -2 26 7 52 21 58 31 63 31 120 -1 26 -15 49
-24 51 -22 2 2 -2 26 -10 52 -8 27 -12 52 -10 57 3 4 23 18 45 30 48 27 51 39
8 40 -76 2 -93 10 -118 59 -11 22 -24 40 -28 40 -5 0 -17 -19 -28 -42z"/>
<path d="M5178 306 c-21 -44 -22 -44 -87 -53 l-66 -8 48 -34 c40 -27 48 -37
42 -55 -3 -11 -8 -36 -12 -54 l-6 -33 57 28 57 28 51 -27 c29 -15 54 -26 56
-23 3 2 -1 25 -8 51 -15 52 -17 47 58 103 l27 20 -37 2 c-21 1 -42 3 -48 4 -5
1 -19 3 -30 4 -13 1 -28 16 -42 46 -12 25 -26 45 -30 45 -5 0 -18 -20 -30 -44z"/>
<path d="M5688 327 c-8 -12 -17 -30 -21 -40 -8 -22 -47 -37 -98 -37 -21 0 -39
-3 -39 -8 0 -4 18 -18 40 -32 43 -27 48 -44 29 -99 -6 -18 -9 -34 -7 -36 2 -3
28 7 56 22 l53 27 55 -28 c31 -15 59 -25 61 -22 3 3 -2 25 -10 50 -18 51 -14
59 43 93 17 9 30 20 30 24 0 4 -29 10 -64 14 -62 7 -64 8 -82 47 -22 50 -28
53 -46 25z"/>
</g>
</svg>
